# xmcd
#
# Track frame offsets:
#	150
#	15232
#	34565
#	47182
#	59177
#	75232
#	89267
#	110632
#	124185
#	138487
#	154575
#
# Disc length: 2295
#
# Revision: 3
# Processed by: cddbd v1.5.1PL0 Copyright (c) Steve Scherf et al.
# Submitted via: CDValet v3.31 - Copyright (c) 1997 Greg Leichner
# Normalized: r1:DSETVAR1,TSWAP
#
DISCID=8708f50b
DTITLE=Various Artist - Country's Hottest Faces
DYEAR=1900
DGENRE=
TTITLE0=George Strait - All My Ex's Live In Texas
TTITLE1=Vince Gill - Down To New Orleans
TTITLE2=Bobbie Cryner - Son Of A Preacher Man
TTITLE3=Frazier River - Money Don't Make People
TTITLE4=Reba McEntire - You're No Good
TTITLE5=David Lee Murphy - Born That Way
TTITLE6=Trisha Yearwood - On A Bus To St. Cloud
TTITLE7=The Mavericks - Something Stupid
TTITLE8=Tracy Byrd - Honky-Tonk Dancin' Machine
TTITLE9=Mark Chesnutt - Trouble
TTITLE10=Rhett Akins - Love You Back
EXTD=
EXTT0=
EXTT1=
EXTT2=
EXTT3=
EXTT4=
EXTT5=
EXTT6=
EXTT7=
EXTT8=
EXTT9=
EXTT10=
PLAYORDER=
